<svg xmlns="http://www.w3.org/2000/svg" width="239" height="197" viewBox="0 0 239 197">
  <g fill="none" fill-rule="evenodd">
    <path fill="#363E99" fill-rule="nonzero" d="M151.756696,93.4112782 C152.487481,94.1382385 153.218265,96.3191192 153.94905,97.0460795 C129.833156,113.039205 75.7550888,146.479377 46.5237013,169.015145 C57.4854716,179.919549 71.3703806,188.643072 87.4476437,193.004833 C139.333356,208.270999 194.872993,178.465628 210.219471,126.12449 C216.796533,102.861762 214.604179,78.8720731 205.103978,57.7902256 C197.796131,64.3328679 189.026715,71.6024705 179.526514,78.1451128 C179.526514,78.1451128 178.795729,78.8720731 178.795729,78.8720731 C171.487883,84.6877551 163.449251,89.7764769 156.141404,94.8651987 C155.41062,93.4112782 154.679835,91.9573577 153.94905,91.2303974 C159.795328,87.5955962 164.91082,83.9607949 170.026313,79.5990333 C170.026313,79.5990333 170.026313,79.5990333 170.026313,79.5990333 C175.872591,75.2372718 181.718868,70.8755103 187.565146,67.240709 C176.603375,73.7833513 164.91082,78.8720731 153.218265,83.2338346 C153.218265,81.0529538 153.218265,78.8720731 153.218265,77.4181526 C151.756696,78.1451128 150.295127,79.5990333 149.564342,80.3259936 C148.102773,80.3259936 146.641203,79.5990333 145.179634,78.8720731 C143.718065,77.4181526 142.256495,75.2372718 141.52571,73.7833513 C159.064543,66.5137487 178.064945,56.3363051 197.065347,42.5240602 C184.642007,25.0770141 166.37239,10.537809 143.718065,3.99516665 C91.8323518,-11.2709987 36.2927157,18.5343718 20.9462373,70.8755103 C16.5615292,86.1416756 15.8307445,102.134801 18.7538832,116.674006 C24.6001607,113.766165 30.4464382,110.858324 36.2927157,108.677444 L36.2927157,110.858324 L34.1003617,113.766165 C28.9848689,115.220086 23.869376,116.674006 19.4846679,118.854887 C23.1385914,137.028894 31.9080076,153.022019 45.0621319,166.107304 C72.1011653,145.025456 123.986878,110.858324 151.756696,93.4112782 Z"/>
    <path fill="#363E99" fill-rule="nonzero" d="M62.3111111,101 C62.3111111,101 61.6111111,101 62.3111111,101 L62.3111111,102.4 L62.3111111,101 Z"/>
    <path fill="#CE1141" fill-rule="nonzero" d="M48.2307692 105C46.1538462 105.7 44.0769231 106.4 42 107.1L42 112C44.7692308 111.3 48.2307692 110.6 51 109.9L48.2307692 105zM36 110C23.76 115 11.52 121.428571 0 130 10.08 123.571429 21.6 119.285714 33.84 115.714286L36 112.857143 36 110zM141 75.0487805C142.462687 76.5121951 143.925373 78.7073171 144.656716 80.1707317 146.119403 80.902439 147.58209 80.902439 149.044776 81.6341463 150.507463 80.902439 151.970149 79.4390244 152.701493 78.7073171 152.701493 80.902439 152.701493 83.097561 152.701493 84.5609756 164.402985 80.1707317 176.104478 75.0487805 187.074627 68.4634146 181.955224 72.8536585 176.104478 77.2439024 169.522388 80.902439 169.522388 80.902439 169.522388 80.902439 169.522388 80.902439 169.522388 80.902439 169.522388 80.902439 169.522388 80.902439 164.402985 84.5609756 158.552239 88.2195122 153.432836 92.6097561 154.164179 94.0731707 154.895522 95.5365854 155.626866 97 163.671642 91.8780488 170.985075 86.0243902 178.298507 80.902439 178.298507 80.902439 179.029851 80.1707317 179.029851 80.1707317 211.940299 55.2926829 237.537313 29.6829268 239 7 203.895522 42.1219512 171.716418 61.8780488 141 75.0487805zM84 103.066667L84 101.6C82.5217391 99.4 81.0434783 97.2 79.5652174 95 75.1304348 96.4666667 71.4347826 97.2 67 98.6666667L67 106C72.9130435 105.266667 78.0869565 103.8 84 103.066667zM151.810345 94C152.54023 94.7301587 153.270115 96.9206349 154 97.6507937 121.885057 118.095238 39.408046 171.396825 27 186 29.1896552 175.047619 113.126437 118.095238 151.810345 94zM83 94.7C83.7 96.1 84.4 97.5 85.1 98.9L86.5 94C85.8 94 84.4 94.7 83 94.7zM125 94.1034483C125 93.3793103 125 92.6551724 125 91.9310345 125 86.137931 130.913043 80.3448276 138.304348 79.6206897 139.782609 79.6206897 140.521739 79.6206897 142 79.6206897 141.26087 78.1724138 140.521739 77.4482759 139.043478 76 127.956522 80.3448276 117.608696 83.9655172 108 86.862069L111.695652 97C115.391304 96.2758621 119.826087 94.8275862 125 94.1034483zM147 85.8616954C146.266667 85.1616954 146.266667 85.1616954 145.533333 84.4616954 140.4 83.0616954 136 85.1616954 136 86.5616954 136 87.2616954 136.733333 87.9616954 137.466667 88.6616954 140.4 87.9616954 144.066667 87.2616954 147 85.8616954z"/>
    <path fill="#FFF" fill-rule="nonzero" d="M172.5 80.1907797C171.8 80.8907797 171.1 81.5907797 170.4 81.5907797 169.7 80.8907797 169 79.4907797 169 80.1907797L172.5 80.1907797zM128.8 108.8C128.1 109.5 126.7 110.2 126 110.9 126 109.5 126 107.4 126 106 126.7 106.7 127.4 108.1 128.8 108.8zM105 129.124104C105.751156 128.41607 107.253469 127.708035 108.004626 127 111.009251 129.832139 114.765033 131.956244 116.267346 133.372313 120.774284 136.204452 118.520815 139.036591 117.769659 139.744626 116.267346 140.452661 112.511564 139.744626 111.009251 136.912487 111.009251 136.204452 108.004626 132.664278 105 129.124104 105.751156 129.832139 105 129.124104 105 129.124104zM142.581395 105.142857C146.906977 102.285714 150.511628 100.142857 154.116279 98 156.27907 100.142857 157 102.285714 157 105.857143 157 112.285714 149.069767 115.857143 142.581395 116.571429 136.093023 117.285714 133.930233 116.571429 130.325581 115.142857 128.883721 115.857143 127.44186 117.285714 126 118 126 117.285714 126 116.571429 126 115.857143 128.883721 114.428571 131.767442 112.285714 133.930233 110.857143 138.976744 112.285714 143.302326 112.285714 144.744186 109.428571 144.744186 107.285714 144.023256 105.857143 142.581395 105.142857z"/>
    <path fill="#FFF" fill-rule="nonzero" d="M154.262932,98.310088 C157.900027,104.12134 160.809703,109.206186 162.991959,114.291032 L159.354865,117.196658 L163.719378,117.196658 C165.174216,120.82869 166.629054,124.460723 166.629054,127.366349 C168.083892,138.988854 169.53873,144.800106 164.446797,151.337765 C160.082284,156.42261 153.535513,157.149017 136.804878,151.337765 C144.806486,157.875424 167.356473,162.233863 169.53873,144.073699 C170.266149,136.083228 168.811311,126.639943 165.174216,117.196658 L172.448405,117.196658 L168.811311,112.838219 L170.266149,107.753373 L181.904851,107.753373 L183.359689,112.838219 L179.722595,117.196658 L203,117.196658 L197.908068,112.111812 L186.996784,80.1499248 L178.995176,80.1499248 C176.812919,82.3291444 173.903243,83.7819574 171.720986,85.961177 L163.719378,112.838219 C160.082284,104.12134 154.990351,95.4044619 149.171,87.4139901 C150.625838,88.1403966 151.353257,88.8668031 152.808094,90.3196162 C152.808094,86.6875835 152.808094,83.0555509 152.808094,79.4235182 C151.353257,80.1499248 149.898419,81.6027378 149.171,82.3291444 C147.716162,82.3291444 146.261324,81.6027378 144.806486,80.8763313 C139.714554,74.3386725 134.622621,68.5274203 129.530689,63.4425746 C107.708121,43.1031917 86.6129726,30.0278741 72.792013,38.7447525 C58.2436346,47.4616309 70.6097563,79.4235182 77.1565266,91.0460227 C78.6113644,94.6780554 81.5210401,99.0364946 84.4307158,103.394934 L81.5210401,113.564625 L76.4291077,117.923064 L90.2500672,117.923064 L86.6129726,113.564625 L88.0678104,109.206186 C93.8871618,117.923064 100.433932,125.913536 102.616189,128.092756 C103.343608,127.366349 104.071027,126.639943 104.798446,126.639943 C103.343608,125.18713 101.88877,123.734317 100.433932,123.00791 C98.9790942,121.555097 94.6145807,116.470251 90.2500672,109.932593 L98.9790942,109.932593 L100.433932,114.291032 L96.7968375,118.649471 L116.437148,118.649471 C117.164567,117.923064 117.891986,117.196658 118.619405,117.196658 L114.98231,113.564625 L104.798446,80.1499248 L85.1581347,80.1499248 C85.1581347,80.1499248 89.5226482,84.508364 89.5226482,84.508364 L85.1581347,99.0364946 C77.8839455,87.4139901 71.3371752,73.612266 69.1549184,61.9897615 C64.7904049,40.1975656 77.1565266,32.2070937 98.9790942,42.3767852 C112.072635,48.9144439 128.075851,63.4425746 141.169392,79.4235182 C140.441973,79.4235182 138.987135,79.4235182 137.532297,79.4235182 C130.258108,80.1499248 124.438756,85.961177 124.438756,91.7724293 C124.438756,97.5836815 131.712946,101.215714 136.077459,103.394934 C136.077459,103.394934 136.804878,103.394934 136.804878,104.12134 C141.896811,101.215714 146.261324,98.310088 149.898419,96.1308684 C149.171,94.6780554 148.443581,93.9516489 146.988743,93.9516489 C141.169392,91.7724293 136.077459,91.0460227 136.077459,88.1403966 C136.077459,85.961177 140.441973,84.508364 145.533905,85.961177 L151.353257,94.6780554 L154.262932,98.310088 Z"/>
    <polygon fill="#FFF" fill-rule="nonzero" points="33 80 49.189 80 62.434 102.32 62.434 83.6 58.755 80 72 80 68.321 83.6 68.321 110.96 72 116 55.075 116 41.83 94.4 41.83 112.4 46.245 116 33 116 36.679 111.68 36.679 84.32"/>
    <path fill="#363E99" fill-rule="nonzero" d="M90,102 L97,102 L92.8,89 C93.5,89 90,102 90,102 Z"/>
    <path fill="#CE1141" fill-rule="nonzero" d="M93.5,92 C92.8,92 92.8,92 92.8,92 C92.1,94.8571429 90.7,99.8571429 90,102 C92.1,101.285714 94.2,101.285714 97,100.571429 L93.5,92 Z"/>
    <path fill="#363E99" fill-rule="nonzero" d="M172,102 L180,102 L175.636364,89 C175.636364,89.7222222 172.727273,102 172,102 Z"/>
    <circle cx="114.4" cy="9.4" r="1.4" fill="#FFF" fill-rule="nonzero"/>
    <circle cx="86.4" cy="151.4" r="1.4" fill="#FFF" fill-rule="nonzero"/>
    <circle cx="57.4" cy="150.4" r="1.4" fill="#FFF" fill-rule="nonzero"/>
    <path fill="#FFF" fill-rule="nonzero" d="M80.4,136.289949 C81.1,136.289949 81.1,136.989949 81.1,137.689949 C81.1,138.389949 80.4,138.389949 79.7,138.389949 C79,138.389949 79,137.689949 79,136.989949 C79.7,136.289949 79.7,135.589949 80.4,136.289949 Z"/>
    <circle cx="69.7" cy="146.7" r="1" fill="#FFF" fill-rule="nonzero"/>
    <path fill="#FFF" fill-rule="nonzero" d="M76.4,158 C77.1,158 77.1,158.7 77.1,159.4 C77.1,160.1 76.4,160.1 75.7,160.1 C75,160.1 75,159.4 75,158.7 C75,158.7 75.7,158 76.4,158 Z"/>
    <circle cx="87.7" cy="160.7" r="1" fill="#FFF" fill-rule="nonzero"/>
    <path fill="#FFF" fill-rule="nonzero" d="M158.4 135C159.1 135 159.1 135.7 159.1 136.4 159.1 137.1 158.4 137.1 157.7 137.1 157 137.1 157 136.4 157 135.7 157 135 157.7 135 158.4 135zM158.4 146C159.1 146 159.1 146.7 159.1 147.4 159.1 148.1 158.4 148.1 157.7 148.1 157 148.1 157 147.4 157 146.7 157 146 157.7 146 158.4 146zM165.4 136C166.1 136 166.1 136.7 166.1 137.4 166.1 138.1 165.4 138.1 164.7 138.1 164 138.1 164 137.4 164 136.7 164 136.7 164.7 136 165.4 136zM165.8 129C166.5 129 167.2 130.4 166.5 131.1 166.5 131.8 165.1 132.5 164.4 131.8 163.7 131.8 163 130.4 163 129.7 163.7 129 165.1 129 165.8 129zM180.4 128.289949C181.1 128.289949 181.1 128.989949 181.1 129.689949 181.1 130.389949 180.4 130.389949 179.7 130.389949 179 130.389949 179 129.689949 179 128.989949 179 128.289949 179.7 127.589949 180.4 128.289949zM189.4 136C190.1 136 190.1 136.7 190.1 137.4 190.1 138.1 189.4 138.1 188.7 138.1 188 138.1 188 137.4 188 136.7 188 136.7 188.7 136 189.4 136zM179.4 145C180.1 145 180.1 145.7 180.1 146.4 180.1 147.1 179.4 147.1 178.7 147.1 178 147.1 178 146.4 178 145.7 178 145 178.7 145 179.4 145zM187.4 150C188.1 150 188.1 150.7 188.1 151.4 188.1 152.1 187.4 152.1 186.7 152.1 186 152.1 186 151.4 186 150.7 186 150 186.7 150 187.4 150zM194.4 134C195.1 134 195.1 134.7 195.1 135.4 195.1 136.1 194.4 136.1 193.7 136.1 193 136.1 193 135.4 193 134.7 193 134 193.7 134 194.4 134z"/>
    <circle cx="177.7" cy="124.7" r="1" fill="#FFF" fill-rule="nonzero"/>
    <path fill="#FFF" fill-rule="nonzero" d="M162.389949 167.289949C163.089949 167.289949 163.789949 168.689949 163.089949 169.389949 163.089949 170.089949 161.689949 170.789949 160.989949 170.089949 160.289949 170.089949 159.589949 168.689949 160.289949 167.989949 160.989949 167.289949 161.689949 166.589949 162.389949 167.289949zM79.7 118.289949C80.4 118.289949 80.4 118.989949 80.4 118.989949 80.4 119.689949 79.7 119.689949 79.7 119.689949 79 119.689949 79 118.989949 79 118.989949 79 118.289949 79.7 117.589949 79.7 118.289949zM53.4 147C54.1 147 54.1 147.7 54.1 148.4 54.1 149.1 53.4 149.1 52.7 149.1 52 149.1 52 148.4 52 147.7 52.7 147 53.4 147 53.4 147zM54.4 141C55.1 141 55.1 141.7 55.1 142.4 55.1 143.1 54.4 143.1 53.7 143.1 53 143.1 53 142.4 53 141.7 53 141 53.7 141 54.4 141z"/>
    <circle cx="43.7" cy="143.7" r="1" fill="#FFF" fill-rule="nonzero"/>
    <circle cx="108.4" cy="20.4" r="1.4" fill="#FFF" fill-rule="nonzero"/>
    <path fill="#FFF" fill-rule="nonzero" d="M120.7 21.2899495C121.4 21.2899495 121.4 21.9899495 121.4 21.9899495 121.4 22.6899495 120.7 22.6899495 120.7 22.6899495 120.7 22.6899495 120 21.9899495 120 21.9899495 120 21.2899495 120 20.5899495 120.7 21.2899495zM120.7 32C121.4 32 121.4 32.7 121.4 32.7 121.4 33.4 120.7 33.4 120.7 33.4 120.7 33.4 120 32.7 120 32.7 120 32.7 120.7 32 120.7 32zM96.7 27C97.4 27 97.4 27.7 97.4 27.7 97.4 28.4 96.7 28.4 96.7 28.4 96.7 28.4 96 27.7 96 27.7 96 27 96 27 96.7 27zM98.7 29C99.4 29 99.4 29.7 99.4 29.7 99.4 30.4 98.7 30.4 98.7 30.4 98.7 30.4 98 29.7 98 29.7 98 29 98 29 98.7 29zM79.7 46C80.4 46 80.4 46.7 80.4 46.7 80.4 47.4 79.7 47.4 79.7 47.4 79.7 47.4 79 46.7 79 46.7 79 46 79 46 79.7 46zM101.4 30.2899495C102.1 30.2899495 102.1 30.9899495 102.1 30.9899495 102.1 31.6899495 101.4 31.6899495 100.7 31.6899495 100 31.6899495 100 30.9899495 100 30.9899495 100.7 30.2899495 100.7 29.5899495 101.4 30.2899495zM97.4 33C98.1 33 98.1 33.7 98.1 33.7 98.1 34.4 97.4 34.4 96.7 34.4 96 34.4 96 33.7 96 33.7 96 33.7 96.7 33 97.4 33zM111.4 27.2899495C112.1 27.2899495 112.1 27.9899495 112.1 28.6899495 112.1 29.3899495 111.4 29.3899495 110.7 29.3899495 110 29.3899495 110 28.6899495 110 27.9899495 110.7 27.2899495 110.7 26.5899495 111.4 27.2899495zM82.4 51C83.1 51 83.1 51.7 83.1 52.4 83.1 53.1 82.4 53.1 81.7 53.1 81 53.1 81 52.4 81 51.7 81.7 51 81.7 51 82.4 51zM133.4 39.2899495C134.1 39.2899495 134.1 39.9899495 134.1 40.6899495 134.1 41.3899495 133.4 41.3899495 132.7 41.3899495 132 41.3899495 132 40.6899495 132 39.9899495 132.7 39.2899495 133.4 38.5899495 133.4 39.2899495zM132.777778 18.0833333L133.5 11 134.222222 18.0833333C134.222222 18.0833333 134.944444 18.0833333 134.944444 18.7916667L140 19.5 134.944444 20.2083333C134.944444 20.9166667 134.222222 20.9166667 134.222222 20.9166667L133.5 28 132.777778 20.2083333C132.777778 20.2083333 132.055556 19.5 132.055556 19.5L127 18.7916667 132.777778 18.0833333C132.055556 18.0833333 132.055556 18.0833333 132.777778 18.0833333zM88.2857143 47.25L89 42 89.7142857 47.25C89.7142857 47.25 90.4285714 47.25 90.4285714 48L94 48.75 90.4285714 49.5C90.4285714 50.25 89.7142857 50.25 89.7142857 50.25L89 57 88.2857143 50.25C88.2857143 50.25 87.5714286 49.5 87.5714286 49.5L84 49.5 88.2857143 47.25C87.5714286 47.25 87.5714286 47.25 88.2857143 47.25zM190.133333 126.941176L190.866667 122 191.6 126.941176C191.6 126.941176 192.333333 126.941176 192.333333 127.647059L196 128.352941 192.333333 128.352941C192.333333 129.058824 191.6 129.058824 191.6 129.058824L190.866667 134 190.133333 129.764706C190.133333 129.764706 189.4 129.058824 189.4 129.058824L185 128.352941 190.133333 126.941176C189.4 126.941176 190.133333 126.941176 190.133333 126.941176zM180.636364 148.909091L181.363636 146 182.090909 148.909091C182.090909 148.909091 182.818182 148.909091 182.818182 149.636364L185 150.363636 182.818182 150.363636C182.818182 151.090909 182.090909 151.090909 182.090909 151.090909L181.363636 154 180.636364 151.818182C180.636364 151.818182 179.909091 151.090909 179.909091 151.090909L177 151.090909 180.636364 148.909091C179.909091 149.636364 180.636364 148.909091 180.636364 148.909091zM79.2857143 168.5L80 164 80.7142857 168.5C80.7142857 168.5 81.4285714 168.5 81.4285714 169.25L85 170 81.4285714 170.75C81.4285714 171.5 80.7142857 171.5 80.7142857 171.5L80 176 79.2857143 171.5C79.2857143 171.5 78.5714286 170.75 78.5714286 170.75L75 170 79.2857143 168.5C79.2857143 169.25 79.2857143 168.5 79.2857143 168.5z"/>
    <circle cx="110.4" cy="159.4" r="1.4" fill="#FFF" fill-rule="nonzero"/>
    <path fill="#FFF" fill-rule="nonzero" d="M129.4,151 C130.1,151 130.1,151.7 130.1,152.4 C130.1,153.1 129.4,153.1 128.7,153.1 C128,153.1 128,152.4 128,151.7 C128.7,151 128.7,151 129.4,151 Z"/>
  </g>
</svg>
