<svg xmlns="http://www.w3.org/2000/svg" width="496" height="409" viewBox="0 0 496 409">
  <g fill="none" fill-rule="evenodd">
    <path fill="#363E99" fill-rule="nonzero" d="M315.774054,193.93509 C317.291267,195.444363 318.80848,199.972182 320.325693,201.481454 C270.257668,234.685456 157.983915,304.112006 97.2954002,350.899463 C120.053593,373.538555 148.880638,391.649829 182.259321,400.705466 C289.981435,432.400195 405.289614,370.52001 437.151084,261.852367 C450.806,213.555637 446.254362,163.749634 426.530594,119.980722 C411.358466,133.564178 393.151911,148.656906 373.428144,162.240361 C373.428144,162.240361 371.910931,163.749634 371.910931,163.749634 C356.738802,175.823816 340.04946,186.388726 324.877332,196.953636 C323.360119,193.93509 321.842906,190.916545 320.325693,189.407272 C332.463396,181.860908 343.083886,174.314544 353.704376,165.258907 C353.704376,165.258907 353.704376,165.258907 353.704376,165.258907 C365.842079,156.20327 377.979782,147.147633 390.117485,139.601269 C367.359292,153.184724 343.083886,163.749634 318.80848,172.805271 C318.80848,168.277452 318.80848,163.749634 318.80848,160.731088 C315.774054,162.240361 312.739629,165.258907 311.222416,166.76818 C308.18799,166.76818 305.153564,165.258907 302.119138,163.749634 C299.084713,160.731088 296.050287,156.20327 294.533074,153.184724 C330.946183,138.091996 370.393718,116.962177 409.841253,88.2859931 C384.048634,52.0634455 346.118312,21.8779892 299.084713,8.29453381 C191.362598,-23.4001953 76.0544199,38.4799901 44.1929495,147.147633 C35.0896723,178.842362 33.5724594,212.046364 39.6413109,242.23182 C51.7790139,236.194729 63.9167169,230.157638 76.0544199,225.629819 L76.0544199,230.157638 L71.5027813,236.194729 C60.8822912,239.213275 50.261801,242.23182 41.1585238,246.759639 C48.7445882,284.491459 66.9511427,317.695461 94.2609744,344.862372 C150.397851,301.09346 258.119965,230.157638 315.774054,193.93509 Z"/>
    <path fill="#363E99" fill-rule="nonzero" d="M129.467241,210.037076 C129.467241,210.037076 128.017113,210.037076 129.467241,210.037076 L129.467241,212.937332 L129.467241,210.037076 Z"/>
    <path fill="#CE1141" fill-rule="nonzero" d="M99.4615385 218C95.3076923 219.5 91.1538462 221 87 222.5L87 233C92.5384615 231.5 99.4615385 230 105 228.5L99.4615385 218zM74 228C48.84 238.5 23.68 252 0 270 20.72 256.5 44.4 247.5 69.56 240L74 234 74 228zM293 157.146341C296.029851 160.203252 299.059701 164.788618 300.574627 167.845528 303.604478 169.373984 306.634328 169.373984 309.664179 170.902439 312.69403 169.373984 315.723881 166.317073 317.238806 164.788618 317.238806 169.373984 317.238806 173.95935 317.238806 177.01626 341.477612 167.845528 365.716418 157.146341 388.440299 143.390244 377.835821 152.560976 365.716418 161.731707 352.08209 169.373984 352.08209 169.373984 352.08209 169.373984 352.08209 169.373984 352.08209 169.373984 352.08209 169.373984 352.08209 169.373984 341.477612 177.01626 329.358209 184.658537 318.753731 193.829268 320.268657 196.886179 321.783582 199.943089 323.298507 203 339.962687 192.300813 355.11194 180.073171 370.261194 169.373984 370.261194 169.373984 371.776119 167.845528 371.776119 167.845528 439.947761 115.878049 492.970149 62.3821138 496 15 423.283582 88.3658537 356.626866 129.634146 293 157.146341zM176 213.133333L176 210.2C172.869565 205.8 169.73913 201.4 166.608696 197 157.217391 199.933333 149.391304 201.4 140 204.333333L140 219C152.521739 217.533333 163.478261 214.6 176 213.133333zM314.465517 195C315.977011 196.507937 317.488506 201.031746 319 202.539683 252.494253 244.761905 81.6954023 354.84127 56 385 60.5344828 362.380952 234.356322 244.761905 314.465517 195zM172.230403 197.484732C173.680531 200.384988 175.130658 203.285244 176.580786 206.1855L179.481042 196.034605C178.030914 196.034605 175.130658 197.484732 172.230403 197.484732zM260 194.068966C260 192.586207 260 191.103448 260 189.62069 260 177.758621 272.173913 165.896552 287.391304 164.413793 290.434783 164.413793 291.956522 164.413793 295 164.413793 293.478261 161.448276 291.956522 159.965517 288.913043 157 266.086957 165.896552 244.782609 173.310345 225 179.241379L232.608696 200C240.217391 198.517241 249.347826 195.551724 260 194.068966zM304.237407 178.887606C302.718226 177.437478 302.718226 177.437478 301.199044 175.98735 290.564772 173.087094 281.449682 177.437478 281.449682 180.337734 281.449682 181.787862 282.968864 183.23799 284.488046 184.688118 290.564772 183.23799 298.160681 181.787862 304.237407 178.887606z"/>
    <path fill="#FFF" fill-rule="nonzero" d="M357.312434 167.024635C355.862306 168.474763 354.412178 169.924891 352.96205 169.924891 351.511922 168.474763 350.061794 165.574507 350.061794 167.024635L357.312434 167.024635zM266.246486 227.039566C264.796358 228.489694 261.896103 229.939821 260.445975 231.389949 260.445975 228.489694 260.445975 224.13931 260.445975 221.239054 261.896103 222.689182 263.346231 225.589438 266.246486 227.039566zM217 267.411601C218.502313 265.941068 221.506938 264.470534 223.009251 263 229.018502 268.882135 236.530066 273.293737 239.534692 276.234804 248.548568 282.116939 244.04163 287.999074 242.539317 289.469608 239.534692 290.940142 232.023128 289.469608 229.018502 283.587473 229.018502 282.116939 223.009251 274.76427 217 267.411601 218.502313 268.882135 217 267.411601 217 267.411601zM294.232558 218C303.162791 212 310.604651 207.5 318.046512 203 322.511628 207.5 324 212 324 219.5 324 233 307.627907 240.5 294.232558 242 280.837209 243.5 276.372093 242 268.930233 239 265.953488 240.5 262.976744 243.5 260 245 260 243.5 260 242 260 240.5 265.953488 237.5 271.906977 233 276.372093 230 286.790698 233 295.72093 233 298.697674 227 298.697674 222.5 297.209302 219.5 294.232558 218z"/>
    <path fill="#FFF" fill-rule="nonzero" d="M319.968414,203.76977 C327.508085,215.872543 333.539821,226.46247 338.063624,237.052397 L330.523953,243.103783 L339.571558,243.103783 C342.587426,250.668017 345.603294,258.23225 345.603294,264.283636 C348.619162,288.489183 351.635031,300.591956 341.079492,314.207576 C332.031887,324.797503 318.46048,326.31035 283.777996,314.207576 C300.365271,327.823196 347.111228,336.900276 351.635031,299.07911 C353.142965,282.437796 350.127097,262.77079 342.587426,243.103783 L357.666767,243.103783 L350.127097,234.026703 L353.142965,223.436777 L377.269911,223.436777 L380.285779,234.026703 L372.746108,243.103783 L421,243.103783 L410.444461,232.513857 L387.825449,165.948604 L371.238174,165.948604 C366.714372,170.487144 360.682635,173.512837 356.158833,178.051377 L339.571558,234.026703 C332.031887,215.872543 321.476348,197.718383 309.412876,181.07707 C312.428744,182.589917 313.936678,184.102764 316.952546,187.128457 C316.952546,179.564224 316.952546,171.99999 316.952546,164.435757 C313.936678,165.948604 310.92081,168.974297 309.412876,170.487144 C306.397007,170.487144 303.381139,168.974297 300.365271,167.46145 C289.809732,153.84583 279.254193,141.743057 268.698654,131.15313 C223.460631,88.793424 179.730542,61.5621842 151.079793,79.7163441 C120.921111,97.870504 146.555991,164.435757 160.127398,188.641304 C163.143266,196.205537 169.175003,205.282617 175.206739,214.359697 L169.175003,235.53955 L158.619464,244.61663 L187.270212,244.61663 L179.730542,235.53955 L182.74641,226.46247 C194.809883,244.61663 208.38129,261.257943 212.905092,265.796483 C214.413026,264.283636 215.92096,262.77079 217.428895,262.77079 C214.413026,259.745097 211.397158,256.719403 208.38129,255.206557 C205.365422,252.180863 196.317817,241.590937 187.270212,227.975317 L205.365422,227.975317 L208.38129,237.052397 L200.841619,246.129477 L241.55584,246.129477 C243.063774,244.61663 244.571709,243.103783 246.079643,243.103783 L238.539972,235.53955 L217.428895,165.948604 L176.714673,165.948604 C176.714673,165.948604 185.762278,175.025684 185.762278,175.025684 L176.714673,205.282617 C161.635332,181.07707 148.063925,152.332984 143.540123,128.127437 C134.492518,82.7420374 160.127398,66.1007241 205.365422,87.2805774 C232.508236,100.896197 265.682786,131.15313 292.8256,164.435757 C291.317666,164.435757 288.301798,164.435757 285.28593,164.435757 C270.206589,165.948604 258.143116,178.051377 258.143116,190.15415 C258.143116,202.256923 273.222457,209.821157 282.270061,214.359697 C282.270061,214.359697 283.777996,214.359697 283.777996,215.872543 C294.333534,209.821157 303.381139,203.76977 310.92081,199.23123 C309.412876,196.205537 307.904941,194.69269 304.889073,194.69269 C292.8256,190.15415 282.270061,188.641304 282.270061,182.589917 C282.270061,178.051377 291.317666,175.025684 301.873205,178.051377 L313.936678,196.205537 L319.968414,203.76977 Z"/>
    <polygon fill="#FFF" fill-rule="nonzero" points="69 167 102.623 167 130.132 212.88 130.132 174.4 122.491 167 150 167 142.358 174.4 142.358 230.64 150 241 114.849 241 87.34 196.6 87.34 233.6 96.509 241 69 241 76.642 232.12 76.642 175.88"/>
    <path fill="#363E99" fill-rule="nonzero" d="M188,210 L203,210 L194,183 C195.5,183 188,210 188,210 Z"/>
    <path fill="#CE1141" fill-rule="nonzero" d="M195.5,192 C194,192 194,192 194,192 C192.5,198 189.5,208.5 188,213 C192.5,211.5 197,211.5 203,210 L195.5,192 Z"/>
    <path fill="#363E99" fill-rule="nonzero" d="M357,210 L374,210 L364.727273,183 C364.727273,184.5 358.545455,210 357,210 Z"/>
    <circle cx="236.742" cy="21.103" r="2.9" fill="#FFF" fill-rule="nonzero"/>
    <circle cx="179.331" cy="315.155" r="2.9" fill="#FFF" fill-rule="nonzero"/>
    <circle cx="119.121" cy="312.355" r="2.9" fill="#FFF" fill-rule="nonzero"/>
    <path fill="#FFF" fill-rule="nonzero" d="M166.729175,283.450592 C168.179303,283.450592 168.179303,284.90072 168.179303,286.350848 C168.179303,287.800976 166.729175,287.800976 165.279047,287.800976 C163.828919,287.800976 163.828919,286.350848 163.828919,284.90072 C165.279047,283.450592 165.279047,282.000464 166.729175,283.450592 Z"/>
    <circle cx="144.275" cy="305.304" r="1.45" fill="#FFF" fill-rule="nonzero"/>
    <path fill="#FFF" fill-rule="nonzero" d="M158.327692,327.657839 C159.77782,327.657839 159.77782,329.107967 159.77782,330.558095 C159.77782,332.008223 158.327692,332.008223 156.877564,332.008223 C155.427436,332.008223 155.427436,330.558095 155.427436,329.107967 C155.427436,329.107967 156.877564,327.657839 158.327692,327.657839 Z"/>
    <circle cx="182.082" cy="333.309" r="1.45" fill="#FFF" fill-rule="nonzero"/>
    <path fill="#FFF" fill-rule="nonzero" d="M327.757601 280.049435C329.207729 280.049435 329.207729 281.499563 329.207729 282.949691 329.207729 284.399819 327.757601 284.399819 326.307473 284.399819 324.857345 284.399819 324.857345 282.949691 324.857345 281.499563 324.857345 280.049435 326.307473 280.049435 327.757601 280.049435zM327.757601 303.853637C329.207729 303.853637 329.207729 305.303765 329.207729 306.753893 329.207729 308.204021 327.757601 308.204021 326.307473 308.204021 324.857345 308.204021 324.857345 306.753893 324.857345 305.303765 324.857345 303.853637 326.307473 303.853637 327.757601 303.853637zM343.160319 282.849929C344.610447 282.849929 344.610447 284.300057 344.610447 285.750185 344.610447 287.200313 343.160319 287.200313 341.710192 287.200313 340.260064 287.200313 340.260064 285.750185 340.260064 284.300057 340.260064 284.300057 341.710192 282.849929 343.160319 282.849929zM343.260081 268.847458C344.710209 268.847458 346.160337 271.747714 344.710209 273.197842 344.710209 274.647969 341.809953 276.098097 340.359825 274.647969 338.909697 274.647969 337.459569 271.747714 337.459569 270.297586 338.909697 268.847458 341.809953 268.847458 343.260081 268.847458zM373.965757 266.647626C375.415885 266.647626 375.415885 268.097754 375.415885 269.547882 375.415885 270.99801 373.965757 270.99801 372.515629 270.99801 371.065501 270.99801 371.065501 269.547882 371.065501 268.097754 371.065501 266.647626 372.515629 265.197498 373.965757 266.647626zM392.168971 282.849929C393.619099 282.849929 393.619099 284.300057 393.619099 285.750185 393.619099 287.200313 392.168971 287.200313 390.718843 287.200313 389.268715 287.200313 389.268715 285.750185 389.268715 284.300057 389.268715 284.300057 390.718843 282.849929 392.168971 282.849929zM371.165263 301.053143C372.615391 301.053143 372.615391 302.503271 372.615391 303.953399 372.615391 305.403527 371.165263 305.403527 369.715135 305.403527 368.265007 305.403527 368.265007 303.953399 368.265007 302.503271 368.265007 301.053143 369.715135 301.053143 371.165263 301.053143zM387.968229 312.25512C389.418357 312.25512 389.418357 313.705248 389.418357 315.155376 389.418357 316.605504 387.968229 316.605504 386.518101 316.605504 385.067973 316.605504 385.067973 315.155376 385.067973 313.705248 385.067973 312.25512 386.518101 312.25512 387.968229 312.25512zM403.370948 278.649188C404.821076 278.649188 404.821076 280.099316 404.821076 281.549444 404.821076 282.999572 403.370948 282.999572 401.92082 282.999572 400.470692 282.999572 400.470692 281.549444 400.470692 280.099316 400.470692 278.649188 401.92082 278.649188 403.370948 278.649188z"/>
    <circle cx="368.315" cy="259.096" r="1.45" fill="#FFF" fill-rule="nonzero"/>
    <path fill="#FFF" fill-rule="nonzero" d="M336.809627 347.861962C338.259755 347.861962 339.709883 350.762218 338.259755 352.212346 338.259755 353.662474 335.359499 355.112602 333.909371 353.662474 332.459243 353.662474 331.009115 350.762218 332.459243 349.31209 333.909371 347.861962 335.359499 346.411834 336.809627 347.861962zM165.279047 245.643918C166.729175 245.643918 166.729175 247.094046 166.729175 247.094046 166.729175 248.544174 165.279047 248.544174 165.279047 248.544174 163.828919 248.544174 163.828919 247.094046 163.828919 247.094046 163.828919 245.643918 165.279047 244.19379 165.279047 245.643918zM110.719288 305.253884C112.169416 305.253884 112.169416 306.704012 112.169416 308.15414 112.169416 309.604268 110.719288 309.604268 109.26916 309.604268 107.819032 309.604268 107.819032 308.15414 107.819032 306.704012 109.26916 305.253884 110.719288 305.253884 110.719288 305.253884zM112.119536 292.65166C113.569664 292.65166 113.569664 294.101788 113.569664 295.551916 113.569664 297.002044 112.119536 297.002044 110.669408 297.002044 109.21928 297.002044 109.21928 295.551916 109.21928 294.101788 109.21928 292.65166 110.669408 292.65166 112.119536 292.65166z"/>
    <circle cx="91.066" cy="298.303" r="1.45" fill="#FFF" fill-rule="nonzero"/>
    <circle cx="224.139" cy="43.507" r="2.9" fill="#FFF" fill-rule="nonzero"/>
    <path fill="#FFF" fill-rule="nonzero" d="M250.694125 45.4085723C252.144253 45.4085723 252.144253 46.8587002 252.144253 46.8587002 252.144253 48.3088282 250.694125 48.3088282 250.694125 48.3088282 250.694125 48.3088282 249.243997 46.8587002 249.243997 46.8587002 249.243997 45.4085723 249.243997 43.9584443 250.694125 45.4085723zM250.694125 67.2118644C252.144253 67.2118644 252.144253 68.6619924 252.144253 68.6619924 252.144253 70.1121203 250.694125 70.1121203 250.694125 70.1121203 250.694125 70.1121203 249.243997 68.6619924 249.243997 68.6619924 249.243997 68.6619924 250.694125 67.2118644 250.694125 67.2118644zM200.285227 57.4101342C201.735355 57.4101342 201.735355 58.8602621 201.735355 58.8602621 201.735355 60.3103901 200.285227 60.3103901 200.285227 60.3103901 200.285227 60.3103901 198.835099 58.8602621 198.835099 58.8602621 198.835099 57.4101342 198.835099 57.4101342 200.285227 57.4101342zM204.485968 61.6108757C205.936096 61.6108757 205.936096 63.0610037 205.936096 63.0610037 205.936096 64.5111316 204.485968 64.5111316 204.485968 64.5111316 204.485968 64.5111316 203.03584 63.0610037 203.03584 63.0610037 203.03584 61.6108757 203.03584 61.6108757 204.485968 61.6108757zM165.279047 96.6170551C166.729175 96.6170551 166.729175 98.0671831 166.729175 98.0671831 166.729175 99.517311 165.279047 99.517311 165.279047 99.517311 165.279047 99.517311 163.828919 98.0671831 163.828919 98.0671831 163.828919 96.6170551 163.828919 96.6170551 165.279047 96.6170551zM210.136838 63.6117856C211.586966 63.6117856 211.586966 65.0619135 211.586966 65.0619135 211.586966 66.5120415 210.136838 66.5120415 208.68671 66.5120415 207.236582 66.5120415 207.236582 65.0619135 207.236582 65.0619135 208.68671 63.6117856 208.68671 62.1616576 210.136838 63.6117856zM201.735355 70.0123588C203.185483 70.0123588 203.185483 71.4624867 203.185483 71.4624867 203.185483 72.9126147 201.735355 72.9126147 200.285227 72.9126147 198.835099 72.9126147 198.835099 71.4624867 198.835099 71.4624867 198.835099 71.4624867 200.285227 70.0123588 201.735355 70.0123588zM231.140545 58.0107969C232.590673 58.0107969 232.590673 59.4609248 232.590673 60.9110528 232.590673 62.3611808 231.140545 62.3611808 229.690418 62.3611808 228.24029 62.3611808 228.24029 60.9110528 228.24029 59.4609248 229.690418 58.0107969 229.690418 56.5606689 231.140545 58.0107969zM170.929917 106.418785C172.380045 106.418785 172.380045 107.868913 172.380045 109.319041 172.380045 110.769169 170.929917 110.769169 169.479789 110.769169 168.029661 110.769169 168.029661 109.319041 168.029661 107.868913 169.479789 106.418785 169.479789 106.418785 170.929917 106.418785zM275.948455 81.8149988C277.398583 81.8149988 277.398583 83.2651268 277.398583 84.7152548 277.398583 86.1653827 275.948455 86.1653827 274.498327 86.1653827 273.048199 86.1653827 273.048199 84.7152548 273.048199 83.2651268 274.498327 81.8149988 275.948455 80.3648709 275.948455 81.8149988zM275 37L276.5 22 278 37C278 37 279.5 37 279.5 38.5L290 40 279.5 41.5C279.5 43 278 43 278 43L276.5 58 275 41.5C275 41.5 273.5 40 273.5 40L263 38.5 275 37C273.5 37 273.5 37 275 37zM183 97.85L184.5 87 186 97.85C186 97.85 187.5 97.85 187.5 99.4L195 100.95 187.5 102.5C187.5 104.05 186 104.05 186 104.05L184.5 118 183 104.05C183 104.05 181.5 102.5 181.5 102.5L174 102.5 183 97.85C181.5 97.85 181.5 97.85 183 97.85zM394.266667 263.294118L395.733333 253 397.2 263.294118C397.2 263.294118 398.666667 263.294118 398.666667 264.764706L406 266.235294 398.666667 266.235294C398.666667 267.705882 397.2 267.705882 397.2 267.705882L395.733333 278 394.266667 269.176471C394.266667 269.176471 392.8 267.705882 392.8 267.705882L384 266.235294 394.266667 263.294118C392.8 263.294118 394.266667 263.294118 394.266667 263.294118zM374.727273 308.181818L376.272727 302 377.818182 308.181818C377.818182 308.181818 379.363636 308.181818 379.363636 309.727273L384 311.272727 379.363636 311.272727C379.363636 312.818182 377.818182 312.818182 377.818182 312.818182L376.272727 319 374.727273 314.363636C374.727273 314.363636 373.181818 312.818182 373.181818 312.818182L367 312.818182 374.727273 308.181818C373.181818 309.727273 374.727273 308.181818 374.727273 308.181818zM164 349.375L165.5 340 167 349.375C167 349.375 168.5 349.375 168.5 350.9375L176 352.5 168.5 354.0625C168.5 355.625 167 355.625 167 355.625L165.5 365 164 355.625C164 355.625 162.5 354.0625 162.5 354.0625L155 352.5 164 349.375C164 350.9375 164 349.375 164 349.375z"/>
    <circle cx="228.34" cy="330.558" r="2.9" fill="#FFF" fill-rule="nonzero"/>
    <path fill="#FFF" fill-rule="nonzero" d="M267.546972,313.655367 C268.9971,313.655367 268.9971,315.105495 268.9971,316.555623 C268.9971,318.005751 267.546972,318.005751 266.096844,318.005751 C264.646716,318.005751 264.646716,316.555623 264.646716,315.105495 C266.096844,313.655367 266.096844,313.655367 267.546972,313.655367 Z"/>
  </g>
</svg>
